/* XPM */
static xpm_row_t two_xpm[] = {
/* columns rows colors chars-per-pixel */
"8 12 2 1 ",
"  c None",
". c #FFFFFF",
/* pixels */
"  ....  ",
" ...... ",
"...   ..",
"..    ..",
"      ..",
"     .. ",
"    ... ",
"   ...  ",
"  ...   ",
" ..     ",
"........",
"........"
};
