/* XPM */
static xpm_row_t three_xpm[] = {
"20 30 2 1",
" 	c None",
".	c #FFFFFF",
"     ............   ",
"     .............  ",
"    ............... ",
"   .................",
"  ..................",
"........      ......",
".......        .....",
"......         .....",
"               .....",
"              ......",
"        ..........  ",
"        ..........  ",
"       ..........   ",
"        ..........  ",
"        ..........  ",
"            ........",
"             .......",
"              ......",
"               .....",
"               .....",
"....           .....",
".....          .....",
"......        ......",
".......      .......",
"........    ........",
"  ................  ",
"   ..............   ",
"    ............    ",
"     ..........     ",
"     ..........     "};
