/* XPM */
static xpm_row_t bar_xpm[] = {
"20 30 2 1",
" 	c None",
".	c #FFFFFF",
"               .....",
"               .....",
"               .....",
"               .....",
"              ......",
"             .....  ",
"             .....  ",
"            ......  ",
"            .....   ",
"            .....   ",
"           .....    ",
"          .....     ",
"         .....      ",
"        .....       ",
"       ......       ",
"       ......       ",
"       .....        ",
"      .....         ",
"     .....          ",
"     .....          ",
"     .....          ",
"     .....          ",
"    .....           ",
"   .....            ",
"  .....             ",
"......              ",
".....               ",
".....               ",
".....               ",
".....               "};
