/* XPM */
static xpm_row_t colon_xpm[] = {
/* columns rows colors chars-per-pixel */
"2 9 2 1 ",
"  c None",
". c #FFFFFF",
/* pixels */
"..",
"..",
"  ",
"  ",
"  ",
"  ",
"  ",
"..",
".."
};
