/* XPM */
static xpm_row_t energy_ball_xpm[] = {
"42 36 778 2",
"  	c None",
". 	c #F1DFCD",
"+ 	c #F5E7D3",
"@ 	c #F9E5D5",
"# 	c #F5E2D5",
"$ 	c #F1E0CF",
"% 	c #F2D1C7",
"& 	c #EEC7CF",
"* 	c #F8C5DA",
"= 	c #F6C1E1",
"- 	c #F295D3",
"; 	c #F283D4",
"> 	c #F18BD9",
", 	c #F8DFD0",
"' 	c #F1E5D4",
") 	c #F1E4CF",
"! 	c #EEDDCC",
"~ 	c #F6E7D2",
"{ 	c #F7DDDA",
"] 	c #F2AFD3",
"^ 	c #E674BC",
"/ 	c #DF53AC",
"( 	c #D54197",
"_ 	c #CF358A",
": 	c #BF2A7C",
"< 	c #BA2A78",
"[ 	c #BA2779",
"} 	c #C33687",
"| 	c #D359A0",
"1 	c #E672B3",
"2 	c #F291CF",
"3 	c #F5D5DC",
"4 	c #F9E1D2",
"5 	c #FADBCF",
"6 	c #F7E4CE",
"7 	c #F5E8CF",
"8 	c #ED86CD",
"9 	c #DC5FAD",
"0 	c #D1418E",
"a 	c #D14492",
"b 	c #D54797",
"c 	c #D64699",
"d 	c #D13890",
"e 	c #D2348F",
"f 	c #D2338F",
"g 	c #D0338F",
"h 	c #C92F88",
"i 	c #D497B8",
"j 	c #DCA6C1",
"k 	c #D883AA",
"l 	c #DC73AB",
"m 	c #F3B9D0",
"n 	c #F9DBCF",
"o 	c #F8DAC9",
"p 	c #F1DACA",
"q 	c #F5E6D4",
"r 	c #DB5AB4",
"s 	c #CB3F8A",
"t 	c #CF4C94",
"u 	c #D45099",
"v 	c #DA539F",
"w 	c #E054A5",
"x 	c #E54DA4",
"y 	c #E94CA7",
"z 	c #EB4BA8",
"A 	c #EF49AB",
"B 	c #EE46A8",
"C 	c #E940A4",
"D 	c #ED9FCD",
"E 	c #FBE6F7",
"F 	c #FAE2F3",
"G 	c #EDCBDF",
"H 	c #D073A2",
"I 	c #EC8DBA",
"J 	c #F7D0CA",
"K 	c #EFDDC7",
"L 	c #F5E5D5",
"M 	c #F6E9D7",
"N 	c #F4E0CC",
"O 	c #D14DA0",
"P 	c #CA458E",
"Q 	c #D15396",
"R 	c #DA5EA2",
"S 	c #E363AB",
"T 	c #ED66B6",
"U 	c #F36ABD",
"V 	c #F56DBE",
"W 	c #F86CC1",
"X 	c #FA6AC2",
"Y 	c #FA66C2",
"Z 	c #FA61BE",
"` 	c #F858B9",
" .	c #F84AB3",
"..	c #F47DBE",
"+.	c #F6CEE6",
"@.	c #FAE9F7",
"#.	c #F8DEEF",
"$.	c #CE8FAF",
"%.	c #E465AB",
"&.	c #F4E9D1",
"*.	c #F9E3D4",
"=.	c #F9E2D0",
"-.	c #F9E6D3",
";.	c #F2B3D1",
">.	c #CF4396",
",.	c #CA478D",
"'.	c #D25294",
").	c #E2A0C0",
"!.	c #EAB0CE",
"~.	c #EF7EBE",
"{.	c #F782CA",
"].	c #F989CE",
"^.	c #F98CCF",
"/.	c #FB89D2",
"(.	c #FA86D3",
"_.	c #FB82D3",
":.	c #FB7ED2",
"<.	c #FB74CD",
"[.	c #FC67C7",
"}.	c #FA58BC",
"|.	c #F744AE",
"1.	c #F3A1CF",
"2.	c #F9E7F5",
"3.	c #FBDDF0",
"4.	c #D08AAF",
"5.	c #E367B2",
"6.	c #F8E2CF",
"7.	c #F6E6D0",
"8.	c #F5DFD6",
"9.	c #F9D9CF",
"0.	c #F7BDD2",
"a.	c #D957A8",
"b.	c #CA478A",
"c.	c #D35796",
"d.	c #E8C6D6",
"e.	c #F9F2F7",
"f.	c #EFB8D6",
"g.	c #F3A1CE",
"h.	c #F6B8DF",
"i.	c #F8CAE8",
"j.	c #FACFEB",
"k.	c #F7B5E1",
"l.	c #FAA3E0",
"m.	c #F9A0DE",
"n.	c #F99ADE",
"o.	c #F892DA",
"p.	c #FA82D6",
"q.	c #FB72CF",
"r.	c #FB5FC6",
"s.	c #F844B2",
"t.	c #F188C0",
"u.	c #FADFF2",
"v.	c #FACFEA",
"w.	c #CC6899",
"x.	c #E96FB5",
"y.	c #F4CFD0",
"z.	c #F8DBCE",
"A.	c #FAEBD5",
"B.	c #F6DFCE",
"C.	c #F7D4D1",
"D.	c #EB6AB7",
"E.	c #C84285",
"F.	c #D15695",
"G.	c #EBCBDB",
"H.	c #F5E7EE",
"I.	c #EDA5CB",
"J.	c #F3B9D8",
"K.	c #F7DEEF",
"L.	c #F8E1F1",
"M.	c #F8DBF0",
"N.	c #F9D4EF",
"O.	c #F8C2EA",
"P.	c #F9BBE9",
"Q.	c #FAB7EA",
"R.	c #FBB2E9",
"S.	c #FAAAE7",
"T.	c #FA9DE2",
"U.	c #F88BDD",
"V.	c #FC75D4",
"W.	c #FC61C8",
"X.	c #F842AF",
"Y.	c #EF84BC",
"Z.	c #F9D6ED",
"`.	c #F0B4D8",
" +	c #CF3D89",
".+	c #F5A3C7",
"++	c #FADBCE",
"@+	c #FAE8D6",
"#+	c #EBDBCE",
"$+	c #F4EBDC",
"%+	c #F2E2D0",
"&+	c #F8DCD1",
"*+	c #F5A7CB",
"=+	c #CF5D92",
"-+	c #D27AA2",
";+	c #E4A0BF",
">+	c #F9F4F8",
",+	c #EAA5C8",
"'+	c #F4C7E0",
")+	c #FAE7F2",
"!+	c #F6DAED",
"~+	c #F9E2F3",
"{+	c #F9D5F2",
"]+	c #FAD2F2",
"^+	c #FAD1F3",
"/+	c #FBD0F4",
"(+	c #FACEF3",
"_+	c #FAC8F3",
":+	c #FAC1F2",
"<+	c #FAB0EF",
"[+	c #FBA1EA",
"}+	c #F98BE0",
"|+	c #F972D6",
"1+	c #FC5BC8",
"2+	c #F63EA8",
"3+	c #EB85BA",
"4+	c #ECAAD2",
"5+	c #C63183",
"6+	c #E859A7",
"7+	c #F7C9D0",
"8+	c #F9E4D6",
"9+	c #FAE2D4",
"0+	c #F8D5D2",
"a+	c #E760A6",
"b+	c #E3CCD6",
"c+	c #F2DBE8",
"d+	c #E8BFD2",
"e+	c #EEC6DA",
"f+	c #F4C5E1",
"g+	c #F9E7F3",
"h+	c #F4D4E8",
"i+	c #F9DEF2",
"j+	c #FBE7F8",
"k+	c #FBEAF9",
"l+	c #FAE9FA",
"m+	c #FBE8FB",
"n+	c #FCE3FB",
"o+	c #FBE7FA",
"p+	c #FAE7FA",
"q+	c #FADDFA",
"r+	c #F9CDF7",
"s+	c #F9BBF2",
"t+	c #FBA1F0",
"u+	c #FA86E3",
"v+	c #FA6DD5",
"w+	c #FC53C0",
"x+	c #EB40A1",
"y+	c #DA338E",
"z+	c #CC3088",
"A+	c #DA3E92",
"B+	c #F49BC6",
"C+	c #F9DBCD",
"D+	c #F7E6D1",
"E+	c #F7F0D7",
"F+	c #F6B0CF",
"G+	c #DC468F",
"H+	c #EFE3E9",
"I+	c #E7BCD1",
"J+	c #E57AB2",
"K+	c #EEA1CB",
"L+	c #FAE4F3",
"M+	c #F6D7EB",
"N+	c #F7D4EE",
"O+	c #FBE5F8",
"P+	c #FCF0FC",
"Q+	c #FCF3FC",
"R+	c #FBEEFC",
"S+	c #FBE8FC",
"T+	c #FCE2FC",
"U+	c #FBEAFB",
"V+	c #FAE5FA",
"W+	c #FBCFF9",
"X+	c #FAB9F5",
"Y+	c #FB97F0",
"Z+	c #FB79E0",
"`+	c #FD63CE",
" @	c #F849B2",
".@	c #E23B97",
"+@	c #D1338C",
"@@	c #D4388D",
"#@	c #EE79BB",
"$@	c #F8D9CF",
"%@	c #F6E0CF",
"&@	c #E461A7",
"*@	c #DE4C93",
"=@	c #D776A5",
"-@	c #DF68A5",
";@	c #EC7FB9",
">@	c #F5B6DD",
",@	c #FAE4F5",
"'@	c #F2CAE6",
")@	c #FAD0EE",
"!@	c #FBEDFA",
"~@	c #FCF3FD",
"{@	c #FCE8FC",
"]@	c #FCE7FC",
"^@	c #FCEDFD",
"/@	c #FCF1FD",
"(@	c #FCF0FD",
"_@	c #FCEAFD",
":@	c #FBE7FB",
"<@	c #FBE5FA",
"[@	c #FAC9F9",
"}@	c #FBA9F4",
"|@	c #F987E7",
"1@	c #FC6FD7",
"2@	c #FC54BF",
"3@	c #ED3FA2",
"4@	c #D5348E",
"5@	c #D3378E",
"6@	c #EB95C0",
"7@	c #F4CCCE",
"8@	c #E25C9D",
"9@	c #DF5097",
"0@	c #D65296",
"a@	c #E266A7",
"b@	c #EE81BD",
"c@	c #F494CB",
"d@	c #F3AED9",
"e@	c #F8B2E3",
"f@	c #FAD1F0",
"g@	c #FBECFA",
"h@	c #FAE9FB",
"i@	c #FDF2FE",
"j@	c #FCF8FE",
"k@	c #FCFAFE",
"l@	c #FCF9FE",
"m@	c #FCF7FD",
"n@	c #FCEEFD",
"o@	c #FCE0FC",
"p@	c #FBD5FA",
"q@	c #FAB4F6",
"r@	c #FC8EF0",
"s@	c #FC76E1",
"t@	c #FD59C8",
"u@	c #F33FA7",
"v@	c #D83590",
"w@	c #CF338B",
"x@	c #EA4EA3",
"y@	c #F3ABCF",
"z@	c #EE65B2",
"A@	c #DB5AA0",
"B@	c #D8529B",
"C@	c #E765AE",
"D@	c #F281C3",
"E@	c #F788CC",
"F@	c #F79CD6",
"G@	c #F8B0E4",
"H@	c #FBCFF2",
"I@	c #FCE5FB",
"J@	c #FBE3FB",
"K@	c #FBFBFD",
"L@	c #FCFBFE",
"M@	c #FCF6FD",
"N@	c #FCE6FC",
"O@	c #FBE1FA",
"P@	c #FBDEFB",
"Q@	c #FABBF9",
"R@	c #FB8FEF",
"S@	c #FD78E4",
"T@	c #FC5CCA",
"U@	c #F93FAD",
"V@	c #DB3492",
"W@	c #CE308A",
"X@	c #E64CA1",
"Y@	c #EC89C7",
"Z@	c #F260B2",
"`@	c #DE5BA3",
" #	c #D94F9B",
".#	c #EA61AE",
"+#	c #F47BC5",
"@#	c #F984CE",
"##	c #FA9ADD",
"$#	c #F9ADE6",
"%#	c #FBCEF3",
"&#	c #FCDEFC",
"*#	c #FCE3FC",
"=#	c #FDF4FE",
"-#	c #FBF8FD",
";#	c #FCE8FD",
">#	c #FCDAFC",
",#	c #FCDBFC",
"'#	c #FBB5FA",
")#	c #FB96F5",
"!#	c #FD79E8",
"~#	c #FD5CCB",
"{#	c #F93FAE",
"]#	c #DC3492",
"^#	c #CC2F88",
"/#	c #E35AA6",
"(#	c #EB8EC7",
"_#	c #F4D8CD",
":#	c #F3D4D9",
"<#	c #F36FB9",
"[#	c #E46AAF",
"}#	c #DA4B99",
"|#	c #EC5AAD",
"1#	c #F974C6",
"2#	c #FB80CF",
"3#	c #FA91D8",
"4#	c #FAA9E8",
"5#	c #FBCAF4",
"6#	c #FBDCFB",
"7#	c #FCE1FC",
"8#	c #FBFAFD",
"9#	c #FCE5FC",
"0#	c #FBD6FB",
"a#	c #FBD8FB",
"b#	c #FBB3F9",
"c#	c #FC98F7",
"d#	c #FD75E9",
"e#	c #FD59CB",
"f#	c #F83FAE",
"g#	c #DB318F",
"h#	c #C92C85",
"i#	c #E483B6",
"j#	c #E38CC1",
"k#	c #F3DBCB",
"l#	c #EEC6BA",
"m#	c #F4DCC7",
"n#	c #F8E4D1",
"o#	c #F9DADA",
"p#	c #F175BC",
"q#	c #E670B6",
"r#	c #D64694",
"s#	c #EB4FA6",
"t#	c #F869BF",
"u#	c #FB78CC",
"v#	c #FA8CDB",
"w#	c #FBA0E5",
"x#	c #FBC4F5",
"y#	c #FBEAFC",
"z#	c #FCF7FE",
"A#	c #FBD3FB",
"B#	c #FBD2FB",
"C#	c #FCB1FB",
"D#	c #FC87F4",
"E#	c #FD6DE4",
"F#	c #FD52C5",
"G#	c #F238A4",
"H#	c #D4308B",
"I#	c #C52A82",
"J#	c #EE9DCD",
"K#	c #E58AC4",
"L#	c #F9DECE",
"M#	c #F6ECDD",
"N#	c #F5E5D6",
"O#	c #F5EADE",
"P#	c #F6E2DB",
"Q#	c #EC74B9",
"R#	c #F17BC3",
"S#	c #D23F90",
"T#	c #E5469D",
"U#	c #F95BB8",
"V#	c #FB6DC8",
"W#	c #FC80D6",
"X#	c #FB94E4",
"Y#	c #FBB8F3",
"Z#	c #FCD5FA",
"`#	c #FBE0FB",
" $	c #FCDFFC",
".$	c #FCECFD",
"+$	c #FCF6FE",
"@$	c #FBF6FD",
"#$	c #FBD8F9",
"$$	c #FAD4FA",
"%$	c #FCC7FC",
"&$	c #FAA3F7",
"*$	c #FC7AF2",
"=$	c #FD64DC",
"-$	c #FD49BF",
";$	c #EA3097",
">$	c #C92B83",
",$	c #C22D7F",
"'$	c #F7B3E0",
")$	c #EC9CC5",
"!$	c #F2DECF",
"~$	c #F27CBC",
"{$	c #FB88D1",
"]$	c #CD428F",
"^$	c #DD3D96",
"/$	c #F54FAE",
"($	c #FB64C4",
"_$	c #FC78D4",
":$	c #FA87E0",
"<$	c #FAA5EE",
"[$	c #FBC5F6",
"}$	c #FBDFFB",
"|$	c #FAE0FA",
"1$	c #FBDDFB",
"2$	c #FCE6FD",
"3$	c #FADAF9",
"4$	c #FAD3F8",
"5$	c #FBD1FB",
"6$	c #FBADFA",
"7$	c #FA96F6",
"8$	c #FE6FED",
"9$	c #FD59CE",
"0$	c #FA3BB0",
"a$	c #DD288C",
"b$	c #C2277F",
"c$	c #CC5E98",
"d$	c #F1B1D6",
"e$	c #EAA9C3",
"f$	c #F29ABD",
"g$	c #FC86D0",
"h$	c #DC5DA6",
"i$	c #D3368C",
"j$	c #E63E9B",
"k$	c #F953B7",
"l$	c #FB69CD",
"m$	c #FA7BDE",
"n$	c #FA8DE7",
"o$	c #FAAAF5",
"p$	c #FCC4FC",
"q$	c #FCD5FB",
"r$	c #FCD4FC",
"s$	c #FCD6FB",
"t$	c #FAD9F9",
"u$	c #FAD1FA",
"v$	c #FCC9FC",
"w$	c #FDB5FC",
"x$	c #FB98F7",
"y$	c #FD76F2",
"z$	c #FE61DF",
"A$	c #FC48BD",
"B$	c #F02C9B",
"C$	c #CB2681",
"D$	c #BF227A",
"E$	c #DD8AB5",
"F$	c #E8AACA",
"G$	c #F2BAC9",
"H$	c #F7D6C7",
"I$	c #F2DCCC",
"J$	c #F8EAD5",
"K$	c #F7BBCC",
"L$	c #F576BF",
"M$	c #EE76BF",
"N$	c #C93488",
"O$	c #D73790",
"P$	c #F33FA6",
"Q$	c #FC58C2",
"R$	c #FA6AD3",
"S$	c #FD7EE8",
"T$	c #FA8CE9",
"U$	c #FCA2FA",
"V$	c #FCB3FC",
"W$	c #FCC1FC",
"X$	c #FBC6FB",
"Y$	c #FBC6FC",
"Z$	c #FBC3FB",
"`$	c #FCBEFC",
" %	c #FCB7FC",
".%	c #FCA6FB",
"+%	c #FB90F6",
"@%	c #FD7CF4",
"#%	c #FE66E7",
"$%	c #FE4ECC",
"%%	c #F931A8",
"&%	c #DD278A",
"*%	c #C02179",
"=%	c #BA2E7A",
"-%	c #F2B3D5",
";%	c #E4A8CA",
">%	c #EFBFC0",
",%	c #F5D6C5",
"'%	c #F4DECB",
")%	c #F4E2D0",
"!%	c #F9F1D7",
"~%	c #FBF1DC",
"{%	c #FAE4DE",
"]%	c #EF66AE",
"^%	c #FB86D2",
"/%	c #D4539D",
"(%	c #CA3186",
"_%	c #DF3593",
":%	c #FC53C1",
"<%	c #FC6ADC",
"[%	c #FD77EE",
"}%	c #F887F0",
"|%	c #F6A3F2",
"1%	c #FB9AF7",
"2%	c #FC9AF8",
"3%	c #FC9AF9",
"4%	c #FC98F9",
"5%	c #FB94F7",
"6%	c #F797F3",
"7%	c #FB83F5",
"8%	c #FD75F2",
"9%	c #FE64E6",
"0%	c #FE52D3",
"a%	c #FC37B2",
"b%	c #EA2393",
"c%	c #C4227A",
"d%	c #B92074",
"e%	c #D278A6",
"f%	c #F5BEDE",
"g%	c #DC67A3",
"h%	c #F3D9CB",
"i%	c #F3CBBF",
"j%	c #EA60A8",
"k%	c #F67AC3",
"l%	c #F17AC6",
"m%	c #C2317F",
"n%	c #C92E83",
"o%	c #E33195",
"p%	c #FA3BAF",
"q%	c #FC4EC3",
"r%	c #FD63DC",
"s%	c #FD6DEE",
"t%	c #FC73EF",
"u%	c #F78CEF",
"v%	c #F788EF",
"w%	c #FD76F4",
"x%	c #FC75F2",
"y%	c #F880F0",
"z%	c #FC6DEF",
"A%	c #FD64EB",
"B%	c #FE5AE2",
"C%	c #FE4CCF",
"D%	c #FC37B5",
"E%	c #EE2597",
"F%	c #C9207D",
"G%	c #B71B72",
"H%	c #B43174",
"I%	c #F0AED2",
"J%	c #E898C2",
"K%	c #F0CABF",
"L%	c #F4C5B9",
"M%	c #E75AA1",
"N%	c #FA81CE",
"O%	c #E16AB3",
"P%	c #BB2678",
"Q%	c #C4247D",
"R%	c #E02790",
"S%	c #F82EAA",
"T%	c #FC3FBB",
"U%	c #FC53D1",
"V%	c #FE5BE0",
"W%	c #FF5EE8",
"X%	c #FF5EEA",
"Y%	c #FF5FEB",
"Z%	c #FF5BE8",
"`%	c #FF56E2",
" &	c #FF51DE",
".&	c #FE4BD2",
"+&	c #FE40C3",
"@&	c #FA2FAF",
"#&	c #EB1C94",
"$&	c #CB197A",
"%&	c #B0186D",
"&&	c #AA1969",
"*&	c #DF94BA",
"=&	c #F0B4D5",
"-&	c #E165A1",
";&	c #F0CDBC",
">&	c #F2C9BC",
",&	c #EC63B0",
"'&	c #FA80D1",
")&	c #CF5AA2",
"!&	c #B51D72",
"~&	c #BF1B77",
"{&	c #D32186",
"]&	c #F0249C",
"^&	c #FB2EB0",
"/&	c #FE3BC1",
"(&	c #FF41CE",
"_&	c #FF44D2",
":&	c #FF45D3",
"<&	c #FF44D1",
"[&	c #FE40CC",
"}&	c #FE3AC4",
"|&	c #FB2FB0",
"1&	c #F523A0",
"2&	c #E51A8C",
"3&	c #C31674",
"4&	c #99135C",
"5&	c #98125C",
"6&	c #C979A1",
"7&	c #F6BCDD",
"8&	c #DD78AB",
"9&	c #E25A9D",
"0&	c #ED62B0",
"a&	c #F37BC9",
"b&	c #CA519A",
"c&	c #AD1A6C",
"d&	c #B61671",
"e&	c #C01978",
"f&	c #DA1C8A",
"g&	c #EA1B99",
"h&	c #F723A9",
"i&	c #F827AE",
"j&	c #FA28AF",
"k&	c #F929AE",
"l&	c #F624A7",
"m&	c #F0209E",
"n&	c #E41A8E",
"o&	c #D1157D",
"p&	c #B01367",
"q&	c #911356",
"r&	c #901358",
"s&	c #C1709B",
"t&	c #F4B3DA",
"u&	c #D882B1",
"v&	c #E589B6",
"w&	c #EDC2BA",
"x&	c #E15697",
"y&	c #EA5BA9",
"z&	c #EE72C2",
"A&	c #CE539F",
"B&	c #AA1A6B",
"C&	c #AB1569",
"D&	c #AE136B",
"E&	c #B71470",
"F&	c #C6147A",
"G&	c #CE1582",
"H&	c #D31582",
"I&	c #D11580",
"J&	c #D0147E",
"K&	c #C41376",
"L&	c #B21269",
"M&	c #99125A",
"N&	c #8F1254",
"O&	c #941557",
"P&	c #BB5D8E",
"Q&	c #F3ACD6",
"R&	c #DA81AE",
"S&	c #E680AE",
"T&	c #E3549C",
"U&	c #E764B2",
"V&	c #D660AE",
"W&	c #B2327D",
"X&	c #A31564",
"Y&	c #A41465",
"Z&	c #A91367",
"`&	c #A81466",
" *	c #AB1469",
".*	c #AF146B",
"+*	c #A31363",
"@*	c #901155",
"#*	c #911054",
"$*	c #8F1154",
"%*	c #99195B",
"&*	c #B56A8B",
"**	c #E19DBE",
"=*	c #DE72A4",
"-*	c #DE5399",
";*	c #E14F9D",
">*	c #E357AB",
",*	c #CE4C9C",
"'*	c #B3337C",
")*	c #A2236A",
"!*	c #A01864",
"~*	c #A01464",
"{*	c #9B135E",
"]*	c #8F1054",
"^*	c #901256",
"/*	c #961358",
"(*	c #AB296D",
"_*	c #C34082",
":*	c #E5A0C4",
"<*	c #E190AF",
"[*	c #D84B8D",
"}*	c #DB4B96",
"|*	c #DD4797",
"1*	c #DB4499",
"2*	c #D43E8D",
"3*	c #CA3A84",
"4*	c #C1347B",
"5*	c #C8347D",
"6*	c #D03D8A",
"7*	c #D7418D",
"8*	c #DE4B94",
"9*	c #D94D92",
"0*	c #D64386",
"a*	c #D3548E",
"b*	c #D14C8A",
"c*	c #D6438A",
"                                                                                    ",
"                                                                                    ",
"                                  .                                                 ",
"                                    +                                               ",
"                                    @ #                   $                         ",
"                        %         & * = - ; >             , ' ) !                   ",
"                          ~ { ] ^ / ( _ : < [ } | 1 2 3 4 5 6 7                     ",
"                          8 9 0 a b c d e f g h i j k l m n o                       ",
"        p q             r s t u v w x y z A B C D E F G H I J             K         ",
"          L M N       O P Q R S T U V W X Y Z `  ...+.@.#.$.%.          &.          ",
"            *.=.-.;.>.,.'.).!.~.{.].^./.(._.:.<.[.}.|.1.2.3.4.5.      6.7.          ",
"            8.9.0.a.b.c.d.e.f.g.h.i.j.k.l.m.n.o.p.q.r.s.t.u.v.w.x.y.z.A.            ",
"            B.C.D.E.F.G.H.I.J.K.L.M.N.O.P.Q.R.S.T.U.V.W.X.Y.Z.`. +.+++@+            ",
"      #+$+%+&+*+=+-+;+>+,+'+)+!+~+{+]+^+/+(+_+:+<+[+}+|+1+2+3+4+5+6+7+8+            ",
"          9+0+a+b+c+d+e+f+g+h+i+j+k+l+m+n+o+p+q+r+s+t+u+v+w+x+y+z+A+B+C+D+E+        ",
"            F+G+H+I+J+K+L+M+N+O+P+Q+R+S+n+T+T+U+V+W+X+Y+Z+`+ @.@+@@@#@$@%@          ",
"            &@*@=@-@;@>@,@'@)@!@~@{@]@^@/@(@_@T+:@<@[@}@|@1@2@3@4@5@6@7@            ",
"            8@9@0@a@b@c@d@e@f@g@h@:@i@j@k@l@m@n@o@l+p@q@r@s@t@u@v@w@x@y@            ",
"            z@A@B@C@D@E@F@G@H@I@J@/@l@K@L@K@k@M@N@O@P@Q@R@S@T@U@V@W@X@Y@            ",
"            Z@`@ #.#+#@###$#%#&#*#=#L@L@L@L@L@-#;#>#,#'#)#!#~#{#]#^#/#(#            ",
"        _#:#<#[#}#|#1#2#3#4#5#6#7#~@k@L@L@L@8#m@9#0#a#b#c#d#e#f#g#h#i#j#k#          ",
"    l#m#n#o#p#q#r#s#t#u#v#w#x#>#P@y#z#8#L@k@j@/@,#A#B#C#D#E#F#G#H#I#J#K#L#M#N#O#    ",
"          P#Q#R#S#T#U#V#W#X#Y#Z#`# $.$+$m@@$(@7##$$$%$&$*$=$-$;$>$,$'$)$!$          ",
"            ~${$]$^$/$($_$:$<$[$}$|$1$T+2$7#>#3$4$5$6$7$8$9$0$a$b$c$d$e$            ",
"            f$g$h$i$j$k$l$m$n$o$p$q+1$q$r$s$t$u$v$w$x$y$z$A$B$C$D$E$F$G$H$I$        ",
"          J$K$L$M$N$O$P$Q$R$S$T$U$V$W$X$Y$Z$`$ %.%+%@%#%$%%%&%*%=%-%;%>%,%'%'%)%    ",
"        !%~%{%]%^%/%(%_%{#:%<%[%}%|%1%2%3%4%5%6%7%8%9%0%a%b%c%d%e%f%g%              ",
"          h%i%j%k%l%m%n%o%p%q%r%s%t%u%v%w%x%y%z%A%B%C%D%E%F%G%H%I%J%                ",
"          K%L%  M%N%O%P%Q%R%S%T%U%V%W%X%Y%Z%`% &.&+&@&#&$&%&&&*&=&-&                ",
"        ;&    >&  ,&'&)&!&~&{&]&^&/&(&_&:&<&[&}&|&1&2&3&4&5&6&7&8&                  ",
"                  9&0&a&b&c&d&e&f&g&h&i&j&k&l&m&n&o&p&q&r&s&t&u&v&                  ",
"              w&    x&y&z&A&B&C&D&E&F&G&H&I&J&K&L&M&N&O&P&Q&R&S&                    ",
"                        T&U&V&W&X&Y&Z&`& *.*+*@*#*$*%*&***=*                        ",
"                          -*;*>*,*'*)*!*~*{*]*^*/*(*_*:*<*                          ",
"                              [*}*|*1*2*3*4*5*6*7*8*9*                              ",
"                                      0*a*b*c*                                      "};
