/* XPM */
static xpm_row_t mouse_xpm[] = {
"24 38 42 1",
" 	c None",
".	c #31BDED",
"+	c #20A5E5",
"@	c #35C1F1",
"#	c #22A8E6",
"$	c #1DA2E4",
"%	c #2FBAED",
"&	c #199BE2",
"*	c #33C2F0",
"=	c #29B5EB",
"-	c #1B9EE3",
";	c #26B0E9",
">	c #33BFF0",
",	c #1BA2E4",
"'	c #1CA5E5",
")	c #27B7ED",
"!	c #23B1EA",
"~	c #1EACE8",
"{	c #2BBDEF",
"]	c #19A1E5",
"^	c #189DE2",
"/	c #33BFF1",
"(	c #25B8ED",
"_	c #199DE3",
":	c #21B3EA",
"<	c #1CAEE8",
"[	c #199EE3",
"}	c #18B0E8",
"|	c #15A5E5",
"1	c #15ACE9",
"2	c #17AEE9",
"3	c #19A8E7",
"4	c #17A3E4",
"5	c #17B0EA",
"6	c #1EB4EC",
"7	c #19AFE9",
"8	c #2CBDEF",
"9	c #17A9E7",
"0	c #13AFE9",
"a	c #1CB5EC",
"b	c #18B1EB",
"c	c #11B2EA",
".+                      ",
"@#$                     ",
"@%&$                    ",
"@*$&$                   ",
"@@=&&$                  ",
"@@*-&&$                 ",
"@@@;&&&$                ",
"@@@>&&&&$               ",
"@@@@#-&&&,              ",
"@@@*%&&&&&$             ",
"@@@@@'&&&&&,            ",
"@@@@@)&&&&&&,           ",
"@@@@@>-&&&&&&,          ",
"@@@@@@!&&&&&&&,         ",
"@@@@@@>&&&&&&&&,        ",
"@@@@@@@~&&&&&&&&,       ",
"@@@@@@@{&&&&&&&&&]      ",
"@@@@@@@@'^&&&&&&&&]     ",
"@@@@@@@/(&&&&&&&&&&_    ",
"@@@@@@@*>,&&&&&&&&&&]   ",
"@@@@@@@@@:&&&&&&&&&&&,  ",
"@@@@@@@@@*_&&&&&&&&&&&] ",
"@@@@@@@@@@<&&&&&&&[&&&&}",
"@@@@@@@@@@{&&&&&&&[,|12 ",
"@@@@@@@@@@@3&&3         ",
"@@@@@@@@@@@(&&_         ",
"@@@@@@@@@@@@4&&5        ",
"@@@@@@@* @@@6&&4        ",
"@@@@@@@   @@>_&&        ",
"@@@@@     *@@7&-|       ",
"@@@*       @@8&&&       ",
"@@@        @@@9&&1      ",
"@>         @@@(-&^      ",
"            /@@|&&0     ",
"            @@*a&&4     ",
"             @@*[&&     ",
"             @@@b|c     ",
"              /*        "};
