/* XPM */
static xpm_row_t mouse_xpm[] = {
/* columns rows colors chars-per-pixel */
"48 48 79 1 ",
"  c None",
". c #199BE2",
"X c #199CE2",
"o c #189DE2",
"O c #199DE2",
"+ c #199DE3",
"@ c #1A9CE3",
"# c #199EE2",
"$ c #199EE3",
"% c #1B9FE2",
"& c #1B9EE3",
"* c #17A1E4",
"= c #17A3E4",
"- c #15A5E5",
"; c #16A4E5",
": c #16A7E7",
"> c #18A0E3",
", c #19A1E5",
"< c #1AA1E4",
"1 c #1AA1E5",
"2 c #1BA1E5",
"3 c #18A3E4",
"4 c #19A2E5",
"5 c #1BA2E4",
"6 c #18A3E6",
"7 c #1CA2E4",
"8 c #1DA2E4",
"9 c #1EA2E4",
"0 c #1BA6E5",
"q c #18A7E6",
"w c #1CA5E5",
"e c #17A9E7",
"r c #19A8E7",
"t c #1AA8E6",
"y c #17AAE8",
"u c #13AFE9",
"i c #15ACE9",
"p c #17AEE9",
"a c #19AFE9",
"s c #1EACE8",
"d c #1CAEE8",
"f c #11B2EA",
"g c #17B0EA",
"h c #18B0E8",
"j c #18B1EB",
"k c #1CB5EC",
"l c #1EB4EC",
"z c #20A5E5",
"x c #22A8E6",
"c c #22AAE7",
"v c #23B1EA",
"b c #21B3EA",
"n c #26B0E9",
"m c #27B7ED",
"M c #29B5EB",
"N c #24B8EC",
"B c #25B8ED",
"V c #24BBEE",
"C c #2FBAED",
"Z c #2BBDEF",
"A c #2BBEEE",
"S c #2DBCEE",
"D c #2CBDEF",
"F c #31BDED",
"G c #32BEEF",
"H c #33BFF0",
"J c #33BFF1",
"K c #31C0F0",
"L c #31C0F1",
"P c #32C0F0",
"I c #33C0F0",
"U c #32C1F1",
"Y c #33C2F0",
"T c #34C0F0",
"R c #35C0F0",
"E c #34C1F0",
"W c #34C0F1",
"Q c #34C1F1",
"! c #35C1F1",
/* pixels */
"                                                ",
"                                                ",
"                                                ",
"                                                ",
"                                                ",
"                                                ",
"              Fz                                ",
"              !x8                               ",
"              !C.8                              ",
"              !Y8.8                             ",
"              !!M..8                            ",
"              !!Y&..8                           ",
"              !!!n...8                          ",
"              !!!H....8                         ",
"              !!!!x&...5                        ",
"              !!!YC.....8                       ",
"              !!!!!w.....5                      ",
"              !!!!!m......5                     ",
"              !!!!!H&......5                    ",
"              !!!!!!v.......5                   ",
"              !!!!!!H........5                  ",
"              !!!!!!!s........5                 ",
"              !!!!!!!Z.........,                ",
"              !!!!!!!!wo........,               ",
"              !!!!!!!JB..........+              ",
"              !!!!!!!YH5..........,             ",
"              !!!!!!!!!b...........5            ",
"              !!!!!!!!!Y+...........,           ",
"              !!!!!!!!!!d.......$....h          ",
"              !!!!!!!!!!Z.......$5-ip           ",
"              !!!!!!!!!!!r..r                   ",
"              !!!!!!!!!!!B..+                   ",
"              !!!!!!!!!!!!=..g                  ",
"              !!!!!!!Y !!!l..=                  ",
"              !!!!!!!   !!H+..                  ",
"              !!!!!     Y!!a.&-                 ",
"              !!!Y       !!D...                 ",
"              !!!        !!!e..i                ",
"              !H         !!!B&.o                ",
"                          J!!-..u               ",
"                          !!Yk..=               ",
"                           !!Y$..               ",
"                           !!!j-f               ",
"                            JY                  ",
"                                                ",
"                                                ",
"                                                ",
"                                                "
};
