/* XPM */
static xpm_row_t play_yellow_xpm[] = {
"286 64 74 1",
" 	c None",
".	c #010103",
"+	c #363600",
"@	c #282901",
"#	c #191C00",
"$	c #5E5E00",
"%	c #434400",
"&	c #343400",
"*	c #373701",
"=	c #0D0D01",
"-	c #1B1B01",
";	c #6B6A00",
">	c #6C6B01",
",	c #6D6C02",
"'	c #4F5000",
")	c #000201",
"!	c #515000",
"~	c #333600",
"{	c #434200",
"]	c #D6D700",
"^	c #D3D700",
"/	c #D7D801",
"(	c #797900",
"_	c #D8D701",
":	c #CAC900",
"<	c #A1A101",
"[	c #AFAF00",
"}	c #D8D700",
"|	c #464300",
"1	c #A3A401",
"2	c #6B6D00",
"3	c #868600",
"4	c #6E6D01",
"5	c #A3A100",
"6	c #363602",
"7	c #1C1C00",
"8	c #BDBE01",
"9	c #373800",
"0	c #888901",
"a	c #D6D500",
"b	c #939100",
"c	c #0E0F01",
"d	c #1C1B00",
"e	c #0F0D00",
"f	c #BBBD00",
"g	c #282B00",
"h	c #878800",
"i	c #C7C800",
"j	c #272A00",
"k	c #535200",
"l	c #B0B000",
"m	c #D4D800",
"n	c #282900",
"o	c #959501",
"p	c #CACB01",
"q	c #B0AF00",
"r	c #797700",
"s	c #949200",
"t	c #5D5C00",
"u	c #020001",
"v	c #929500",
"w	c #AFB000",
"x	c #605D00",
"y	c #0B0D00",
"z	c #2B2900",
"A	c #464202",
"B	c #A0A300",
"C	c #898700",
"D	c #BBBC00",
"E	c #787800",
"F	c #0C0C00",
"G	c #5F5E01",
"H	c #CBCA00",
"I	c #343700",
"                                                                              .                                 .                                                                                                                                        .      .                             ",
"                                                                                                                  .                                                                                                                                              .     .                      ",
" ++ .        @+#                                                    $%&+*=              -++++$;>,>>>'+#          )           =!+#            =~{@                                                               .                   $;;$+++&+++++++&~+!,,+   .          +>,%&&+&&++++&&++!>>>=",
"+]^]]]]//]]]/]]]                                                   (//]]//__]]]]]]]]]]]]]]]]]]]]]]]]]]]:<$-                  [}]]]]]]]]]]/]]//]]:#                                             |1<1<2;,,>>>,>>>3<4                  ]]]]]]]]]]]]]]]]]]]]_5             .3]]]]]]]]]]]]]]]]]]/_6",
",]]^]]]]]]]]]]]]                                                  7]]]]]]]]]]]]]]]]]]]]]]]]]]]]]]]]]]]]]]]/<!               %_]]]]]]]]]]]]]]]]]//,                                             []]]]]]]]]]]]]]]]_8                  /]/]]]]]]]]]]]]]]]]]][              1]]]]]]]]]]]]]]]]]]]]+",
"<]]]]]]]^]]/]]]]                                                  $]]^]]]]]]]]]]]]]]]]]]]]]]]]]]]]]]]]]]]]]]/89             0_]]]]]]]]]]]]]]]]]]]8                                            =_]]]]]]]]]]]]]]/]//=                 ]]]]]]]]]]]]]]]]]]]]]]              ]]]]]]]]]]]]]]]]]]]]]+",
"</]]]]]]]]]]]]]]                                                  3}a]]]]]]]]]/]]]]]]]]]]]]]]]]]]]]]]]]]]]]]]]]bc           []]]]]]]]]]]]/]]/]]]]_                                            +]]]]]]]]]]]]]]]]]]]|                 ]]]]]]]]]]]]]]]]]]]]]]d            e]]]]]]]/]]]]]]]]]]]]]+",
"f/]]]]]]]]]]]]]]                                                  <]]}]]]]/]]]]]]]]]]]]]]]]]]]]]]]]^]]]]]]]]]]]][g          ]]]]]]]]]]]]]]]]]]]]]/+ .                                         >]]]]]]]]]]]]]]]]]]]h                 ]]]]]]]]]]]]]]]]]]]]]}+  .         *]]]]]]]]]]]]]]]]]]]]]+",
"]]]]^]]]]]]]]]]]                                                  5_]]]]]]]]]]]]]]]/]]/_]]/]]/]]]]]/]]]]]}]]]]]/]ij         _]^]]]]]]]]]]]]]]]/]]]#                                           0_]]]]]]]]]]]]}]]]]]8                 i//_]]]]]]]]]]]]]]]]//$           .k}]]]]]]]]]]]]]]}]]]]]@",
"[/]]]]]]]]]]]]]]                                                  h///]]]]]]]]]]]][1<1<11<1<<11<11<l/]]]]]]]]]]]]]f=        1/]/]]]]m]]]]]]]]]]]f$                                            0/]]]}]]]]]]]]]]]]]]]n                %:/_]]]]]]]]]]]]]]]]/_$            k]]}]]]]]]]]]m]]]]}]}( ",
"=(1_]]]]]]]]]]]]                                                   $o<p_}]]]]]^]]]+                  +>8]/]]]]]]]]][        =,11]]//]]]]]]]]q%@                                               =$,,l]]]]]]]]]]]]]]]]r                 =%4o[]]]]]]]]]]]]fb,% )        .   +>s8]]]]]]]]]]/8<>!d  ",
"     #</]]]]]]]]                                                        (]]]]]]]]]+                     !:]]^]]]]]]],            =b]]]]/]}]]@     .                                                (]]]]]]]]]]]]]]][                  )   =$]]]]]]]]],                      t]]]]]]]/3#       ",
"      @]]]]]]]]]                                                        =]]]]]]]]]+                      #q]]]]]/]]]:7            9]]]]]]]]]    u                                                  hm]]]]]]8]]]]]]]]#                       (/]]]]]]]h                      h/^]]]]]l         ",
"       ]]]]]]]]]                                                         ]]]]]]]]]+                       =q]m]]]]^]/0            =]]]]]]]]]       .                                               :]]]]/]:#]]]]]]]](                        o]_]]m]]/+                    d]]]]]]]:=        .",
"       ]]]]]]]]]                                                         ]]]]]]]]/+                        @:]]]]]]]/:=            /]]]]]]]}                                                      {]]]^]]/( []]}]]]]8                        -]]]]]]/m<                    <]]]]]]]'          ",
"       ]]]]]]]]]                                                         ]]]//]]]]+                         $]]]]]]]]/!            ^]]]]]]]]        . .                                           v]]]]m]]d t]]]]]]]/+          .             ,]]]/]]//!    )             |/]]]]]/1           ",
"       ]]]]]]]]]                                                         ]]]]]]]]]+                          8]]]]]^]]h            ]]]]]]]//                                            )u       =//]]]]]w  =]]]]]]/]h                        =8]]]]]]]8c                =f]]]]}]]n           ",
"       ]]]]]]]]]                                                         ]]]]]]]]]+                          (]]]]]]]]f            ]]]]]]]]/                                                     x//m]/]]!   o]]]]]]/]=                        %]]]]]]]],                2]]]]]]^3            ",
"       ]]]]]]]]]                                                         ]]]]]]]]]+                          @]]]]]]]]]            ]]]]]]]//                                                     []]]]]/:=   %]]]]]^]]!                         <]]]]]]]i#              7://]]]]iy .          ",
"       ]]]]]]]]]                                                         ]]]]]]]]]+                           ]]]]]]]]]#           ]]]]]]]__                                                   u@]/]]]]]h     :/]]/]]][ ))  .                .  j/]]^]]]/h              b/]]]]]]; u           ",
"       ]]]]]]]]]                                                         ]]]]]]]]]+                           ]]]]]]]]]+           ]]]]]]]]]                                                    r]]]/]]}9     (/]]]]]]]j                      .  (]]]]^]]]~ .          +]/]]]]]q              ",
"       ]]]]]]]]]                                                         ]]]]]]]]]+                           ]]]]]]]]]+           ]]]]]]]]]                                               .)   i]]]]]]f      @/]]]]]]](      .         .        =:]/]]]]^<            []]]]]]]+              ",
"       ]]]]]]]]]                                                         ]]]]]]]]]+                           /]]]]]]]]            ]]]]]]]]]                                                   %/]]]]]]$       8]]/]]]]i                          !/]]}]]//!          !]]]]]]/s        .      ",
"       ]]]]]]]]]                                                         ]]]]]]]]]+                          z]]]]]]]]]            ]]]]]]]]]                                               .   o/]]]]m]-       x]]]]]]]]k   )                      w]]]]///8=        =:]]]]]]:d       )       ",
"       ]]]]]]]]]                                                         /]]]]]]]]+                )         $]]]]]]]]l            ]]]]]]]]]                                                  y]]]]]//o        #]]]]]]]]o                          9/]]]]^/],        ,/]]]]]]>                ",
"       ]]]]]]]]]                                                         /]]]]]]]]+                          8]]]]]]/]$            ]]]]]]]]]                                                  $]]]]]//!         q]]]]]]]/7                          h]]]]]]]/-      -]^]]]]]8                 ",
"       ]]]]]]]]]                                                         /]]]]]]]]+                         !]]]]]]]^]-            /]]]]]]]]                                                  []]]]]]]=         t]]]]}]]],                          -:]]]^]]]b      b]]]]]]]|                 ",
"       ]]]]]]]]]                                                         /]]]]]]]]+                        -:}]]}]]]]<             /]]]]]]]]                                                 @]]/]]^]v          d]]]]]]]]f                           >]]]]]]]]+    +]]]]]]]<                  ",
"       ]]]]]]]]]                                                         ]]]]]]]]]+              .        =[]]^]]]]]]+             ]]]]]]]]]                                            .    (]]]]/]/!           o]]]]]]]]+                           8]]]]]]][    []]]]]]/7                  ",
"       ]]]]]]]]]                                                         ]]]]]]]]]+              .       @[/]^]]]]]]o              ]]]]]]]]]                                                 i]]]/]]p=  )        !]]]]]]]]0                           +]]]]]]]]!  !]]]]]]/(                   ",
"       ]]]]]]]]]                                                         ]]]]]]]]]+                    =$:]]]]]]m]]:7              ]]]]]]]]]                                                |]]]]]]]h            =}]]]]]_]_=                           1]]]]]]]ic=8]]]]]]:=                   ",
"       ]]]]]]]]]                                                         ]]]]]]]]]+                 ={(:]^]]]]/m]]m{               ]]]]]]]]]                                                v/]]]]]]A             s]]]]]]]/k                           -]]]]]]]]v(]]]}]]/!                    ",
"       ]]]]]]]]]                                                         ]]]]]]]/][BB<<B<1<<<B<<<B[]]]]]]]]]]]]^//!                ]]]]]]]]]                                               7]/]]]]]:              !//]]]]]][                            ,//]]]]]]]]]]]]]1                     ",
"       ]]]]]]]]]                                                         ]]]]]]]]]]]]]]]]/]]////]]]^]]]]]]]]]]]]_x                 ]]]]]]]]]                                               $]/]]]]]3              =/]]]]]]]]j                           =8]]]]]]]]]]]]]/~                     ",
"       ]]]]]]]]]                                                         ]]]]]]]]]]]]]]]]]]]]]]]]]]]]]/]^]]]]]]:*                  ]]]]]]]]]                                               8]/]/]]]+               s]]]]]]]](                            !]]]]]]]]]^]]/h                      ",
"       ]]]]]]]]]                                                         ]]]]]]]]]]]/]]]]]]]]]]]]]/]]]]]]]]]]]Cy                   ]]]]]]]]]                                              @_]]]]]]]<<1<11<1<<<1<<<<D]]]]]]]]:                             <]]]]]]]]]]]:=                      ",
"       ]]]]]]]]]                                                         ]]]]]]]]]]]]]]]]]]]]]]]]/]]]]]]]/__3-       )             ]]]]]]]]]                                              h]]]]]]]]]]]]]]]]]/]]]]]]]]]}]]}]^]{                            @/]]]]]]]]]]$                       ",
"       ]]]]]]]]]                                                         ]]]]]]]]]]]]]]]]]]]]]]]]/]]]]]/]1,7    .                  ]]]]]]]]]                                              :]m]]]]]]]]]]]]]]]//]]]/]]]]]]]]a]]s                             (]]]]]^]]]8                        ",
"       ]]]]]]]]]                                                         ]]]]]]]]]]]]/]]]]]]]]]]]:11<2,9             u             ]]]]]]]]]                                             !]]]]]]]]]]]]/]]]]]]]]]]]]]]]]]]]]]]]d                            =]]]]]]]]]{                        ",
"       ]]]]]]]]]                                                         ]]]]]]]]]+                                                ]]]]]]]]]                                             o]]]]]]]]]]]]]]]]]]]]]]]m]]]]]]]]]]]]$                             ]]]]]]]]]+                        ",
"       ]]]]]]]]]                                                         ]]]]]]]]]+                                                ]]]]]]]]]                          +-                #]]]]]]]]]/]]]]]/]]]]]]]]/]]//]]]]]]]]8                             ]]]]]]]]]+                        ",
"       ]]]]]]]]]                                                         ]]]]]]]]]+                                                ]]]]]]]]]                        -8}]8>=          )  $]]]]^]/f++++++++++++++++++~+!/]]]]]/]/+                            ]]]]]]]]]+                        ",
"       ]]]]]]]]]                                                         ]]]]]]]]]+                                                ]]]]]]]]]                        b]]]]][=            8]]]]]/](                     f]]]]^]]]3     .                      ]]]]]]]]]+                        ",
"       ]]]]]]]]]                                                         ]]]]]]]]]+                                                ]]]]]]]]]                       +/]}]]]]E .         @]]}]/]]]@                     (/]]]]]]]ic                           ]]]]]]]]]+                        ",
"       ]]]]]]]]]                                                         ]]]]]]]]]+                                                ]]]]]]]]]                       <]]m]]]]0           h]]]]^]]8.                     @/]]]]]]]]!                           ]]]]]]]]]+                        ",
"       ]]]]]]]]]                                                         ]]]]]]]]]+                                                ]]]]]]]]]                      @]]]]]]]}k           :]]]]]]]>                       8]]]]]]]]q                           ]]]]]]]]]+                        ",
"       ]]]]]]]]]                                                         ]]]]]]]]]+                                                ]]]]]]]]]                      3]]^]]]]/# .        !]]]]]]]]-                       x]]]]]]]]_-    .                     ]]]]]]]]]+                        ",
"       ]]]]]]]]]                                                         ]]]]]]]]]+                                                ]]]]]]]]]                     y/]]]]]]]l         . v]_/]]]][                        #]]]]]]]//(                          ]]]]]]]]]+                        ",
"    .  ]]]]]]]]]                          . .                            ]]]]]]]]]+                                                /]]]m]]]]                     $]]]]m]]]!          -/]]]]]]]$                         []]]]]]]]:                          //]]]]]]]6                        ",
"      .]]]]]]]]]                                                         ]]]/]]]]/+                                                ]]]]]]]]].              .     8]]]]]]]/=          $]/]]]]]]7                         t]]]]}]]]]|             .           //]]]]]]]+                        ",
".      ]]]]]]]]]              7,3<<b;j                                   ]]]]]]]}]+                                                ]]]]]]]]]                    @]]]]]]]]h           8]]]]]]]q                          y]]]]]]]]]o                         ]]]]]]]]]+                        ",
" .     ]]]]]]]]]             $i/]]/]//>                                  /]]]]]]]]+       .                                       =]]]]]]]]]                    h]]]]]]]]+          j]]]]^]]]$         .                 v]]]]]]]]]-                        ]]]m]]]]]+                        ",
"      @/]]]]]]]]7           ,]]]]]]]]]]b                        .       F]]]]]]]]]|                                         ).    +//]]]]]]]                    i]]]]]]]8           3/]]]]^]]-                           !]]}]]]]]],            .          =]]]]]]}]]+                        ",
"     =b]]]]]]]]]3=         @_/]]]]]]]]]}*                       .       r]]]]]]]]][y      u                                      cb]]]]]]]]]                   !]]]]]]]/$       .  |]]]]]]]]]=       .                   |]]]]]]]]]:@      .               3]]/]]]]]]<=       .               ",
"=x<<]]//]]]]]]]]]]_[B$c  ) h]]]]]]]]]]]]1                          Gs<]]]]]]]]]]]]]]][<27                                   c$<</]]]]/m]]^]]+.                 q]]]]]]]:=      +>>C}m]]]]]]]]8($+=                 . -+;3:]]]]]]]]mm/h>>@             xo<]]]]]^]]m]]]]]][<2=                  ",
"</]^^]]]]]]]]]]]]]]]//8    <]]]]]]}]]]]]8                         h_}]]]]]]]]]]]]]]]]]//:c                                 .[/]]/]]]]m]]]]]]]]]]//]]]]]]//]]]]]]]]]]]]mh     @8]}]]]]]]]]]]]]]]/_H%    )            $]]]]]]]]]]]]]]m]/]}_l7          o]]]]]]]]]]]]]]]]]]]]/:                  ",
"]]]]]]]]]]]]]]]]]]]]/]]    //]]]]]]]]]]/]                         <]]]]]^]]]]]]]]]]]]]]]]+                                  ]]]]]]]]]]]]]]]]]]]]]]]]]]]]]]]]]]]]]}]]]]]d     v]]]]]]]]]]]]]]]]]/]]h                 1]]]/]]]]]]]]]]]]]]]]]s          1//]]]]]]]]]]]]]]]]]]]]-                 ",
"f]]]]]]]]]]]]]]]]]]/]]]    w]]]]]]]]]]_/:                         1/]]]]]]]]]]]]]]]]]]]]]                                   ]]]]]]]]]/]]]]]]]]]]]]]]]]]]]]^]]]]]]]]]]/<      <}]]/]]]]]]]]]]]/]]]],                 <]]]]]]]]]]]^]]]]]]}]]0  .    .  1]/]]]]]]]]]]]]]/]]]]/m                  ",
"5]]]]]]]]]]]]]]]]///]/:    h]]]]]]]]]]]]1      .                  C]/]]]]]]m]]]]/]]]/]]]/                                   <]]]]]_/]]]]]]]]]]]]]]]]]]]]]]]]]]]]]]/]]]+      :]]]]]]]]]]]]_/]/]]]]$                 5}]]]]]/]]]/]]]]]]]]]],          <]]]]]]]m]]]/]]]]]]]]]/                  ",
">]]]]]]]]]]]]]]]]]]]]/<    +]]]]]/]]]]]/!                         $]]]]]]m]]]]]]]]]]]]]][                                   (]//]]]]]]]]]]]]]]]]]]]]]]]]]]]]]]]]]]]]/<       ]]]]]]]]]]]]]m]]]]]]]+                 v]]]]]m]]]]]]]]/]]]]]],        u 2/]]]]]/]]]]]]]]]]]]]]:                  ",
"@]]}]]]/]]]]]]]]]]]]]],     (}]]]]]]]]]<                          #]]]]/]]]]_/]]]]]/]]]](                                   +]]]]]]]]]]]]]]]]]]]]]]]]]]]]]]]]]]]]]]]]+  .    ]]]]]]]]]]]]]]]]]]]/_=               . ,]]]/]//]]]]]]]]]]]]]],          %//]]]]]]]]]]]/]]]]]]/o                  ",
" 0]]]]]/]]]]]]]]]]]]]Hd     =(]]]]]]]/v=    .                   .  (]]]/]]]]]]//]]]]]]]]# .                                  []]/]/]//]]]]]]]]]]]]]]]]]]]]]]]_]//]]]o        []]}]]]]]]]]]//]]]]]8                  |]]/]]]/]]]]]/]]]]]}]/!           w]]]]]]]]}]///]///]]]$ .                ",
"  *++@           =+++#        +h<:][o|                              ${6++         #9+*!% .                                   =,$+++I*+g                   j+***++~,,=        @$++++=. .     @*++!%                  -k++j           =+++~,            j$+++*         =++~{,                   ",
"                                                                                          .                                                                                                                                                                                                   "};
