/* XPM */
static xpm_row_t play_white_xpm[] = {
"286 61 34 1",
" 	c None",
".	c #3F3F3F",
"+	c #303030",
"@	c #414141",
"#	c #1F1F1F",
"$	c #707070",
"%	c #4F4F4F",
"&	c #0F0F0F",
"*	c #202020",
"=	c #6F6F6F",
"-	c #7F7F7F",
";	c #5F5F5F",
">	c #111111",
",	c #808080",
"'	c #FFFFFF",
")	c #909090",
"!	c #EFEFEF",
"~	c #BFBFBF",
"{	c #CFCFCF",
"]	c #C0C0C0",
"^	c #A1A1A1",
"/	c #505050",
"(	c #DFDFDF",
"_	c #AFAFAF",
":	c #D0D0D0",
"<	c #2F2F2F",
"[	c #F0F0F0",
"}	c #616161",
"|	c #E0E0E0",
"1	c #B0B0B0",
"2	c #8F8F8F",
"3	c #9F9F9F",
"4	c #010101",
"5	c #717171",
" ..          +@#                                                    $%...&              *....=------;@*                      >;.*            >.%+                                                                                   =--=..............;,,@              .-,%.............;--->",
"@'''''''''''''''                                                   )'''''''''''''''''''''''''''''''''''!~=*                  {''''''''''''''''''!*                                             %]]~]-----------^],                  ''''''''''''''''''''']              ^''''''''''''''''''''.",
"-'''''''''''''''                                                  *''''''''''''''''''''''''''''''''''''''''~;               /'''''''''''''''''''',                                             {'''''''''''''''''(                  '''''''''''''''''''''{              ~''''''''''''''''''''@",
"~'''''''''''''''                                                  $''''''''''''''''''''''''''''''''''''''''''(@             ^''''''''''''''''''''(                                            >'''''''''''''''''''>                 ''''''''''''''''''''''              '''''''''''''''''''''.",
"]'''''''''''''''                                                  ^''''''''''''''''''''''''''''''''''''''''''''_>           {'''''''''''''''''''''                                            @'''''''''''''''''''/                 ''''''''''''''''''''''*            &'''''''''''''''''''''@",
"('''''''''''''''                                                  ~''''''''''''''''''''''''''''''''''''''''''''':+          ''''''''''''''''''''''@                                           -'''''''''''''''''''^                 ''''''''''''''''''''''@            @'''''''''''''''''''''@",
"''''''''''''''''                                                  ]''''''''''''''''''''''''''''''''''''''''''''''!<         ''''''''''''''''''''''*                                           ^'''''''''''''''''''(                 ['''''''''''''''''''''$            }'''''''''''''''''''''+",
":'''''''''''''''                                                  ^''''''''''''''':]]]]]]]]]]]]]]]]:''''''''''''''(>        ]'''''''''''''''''''|=                                            ^''''''''''''''''''''<                /[''''''''''''''''''''$            }'''''''''''''''''''') ",
">)]'''''''''''''                                                   $1]['''''''''''@                  @-|'''''''''''{        >-]]'''''''''''':/+                                               >=,,:''''''''''''''''2                 >/,1:''''''''''''(1,/              @-1|'''''''''''|~,}*  ",
"     *]'''''''''                                                        2'''''''''@                     ;['''''''''',            &_'''''''''+                                                      2'''''''''''''''{                      >$''''''''',                      =''''''''^*       ",
"      +'''''''''                                                        &'''''''''@                      #:'''''''''[#            @'''''''''                                                       ^'''''''|''''''''*                       )''''''''^                      ^''''''':         ",
"       '''''''''                                                         '''''''''@                       >:'''''''''^            &'''''''''                                                       [''''''[*'''''''')                        1''''''''@                    *'''''''!>         ",
"       '''''''''                                                         '''''''''.                        +!''''''''!&            '''''''''                                                      %'''''''2 {'''''''|                        *''''''''~                    ~''''''';          ",
"       '''''''''                                                         '''''''''@                         $'''''''''}            '''''''''                                                      _'''''''# =''''''''@                        ,''''''''}                  /''''''']           ",
"       '''''''''                                                         '''''''''@                          |''''''''3            '''''''''                                                    4>''''''':  >''''''''3                        >|'''''''(>                >('''''''<           ",
"       '''''''''                                                         '''''''''.                          2''''''''(            '''''''''                                                     $''''''';   1''''''''>                        /'''''''',                -'''''''^            ",
"       '''''''''                                                         '''''''''@                          +'''''''''            '''''''''                                                     {''''''[>   /''''''''}                         ~'''''''!#              *!''''''[>            ",
"       '''''''''                                                         '''''''''.                           '''''''''*           '''''''''                                                    +'''''''^     !'''''''{                         +''''''''^              _'''''''5             ",
"       '''''''''                                                         '''''''''@                           '''''''''.           '''''''''                                                    )'''''''@     )''''''''<                         2''''''''@            @''''''':              ",
"       '''''''''                                                         '''''''''.                           '''''''''@           '''''''''                                                    [''''''|      +''''''''2                         >!'''''''~            :'''''''@              ",
"       '''''''''                                                         '''''''''@                           '''''''''            '''''''''                                                   /'''''''=       |'''''''!                          }''''''''}          }'''''''1               ",
"       '''''''''                                                         '''''''''.                          +'''''''''            '''''''''                                                   1'''''''#       $''''''''}                          {'''''''|>        &!''''''[*               ",
"       '''''''''                                                         '''''''''@                          ='''''''':            '''''''''                                                  >'''''''1        *''''''''1                          @''''''''-        ,''''''',                ",
"       '''''''''                                                         '''''''''.                          (''''''''$            '''''''''                                                  $'''''''}         {''''''''*                          ^''''''''*      *'''''''|                 ",
"       '''''''''                                                         '''''''''@                         }'''''''''*            '''''''''                                                  {'''''''>         =''''''''-                          *['''''''1      _'''''''/                 ",
"       '''''''''                                                         '''''''''.                        #!''''''''~             '''''''''                                                 +'''''''1          #''''''''(                           -''''''''@    @''''''']                  ",
"       '''''''''                                                         '''''''''@                       >{'''''''''@             '''''''''                                                 )'''''''}           _''''''''@                           |'''''''{    :'''''''*                  ",
"       '''''''''                                                         '''''''''.                      <{'''''''''1              '''''''''                                                 !''''''!>           }''''''''3                           @''''''''}  ;''''''')                   ",
"       '''''''''                                                         '''''''''@                    >=!'''''''''[*              '''''''''                                                /'''''''^            >'''''''''>                           ]'''''''!>>(''''''[>                   ",
"       '''''''''                                                         '''''''''.                 >%2!'''''''''''/               '''''''''                                                _'''''''/             1''''''''}                           *''''''''_)'''''''}                    ",
"       '''''''''                                                         '''''''''{~~~~~]]~~~~~~~~{'''''''''''''''}                '''''''''                                               *'''''''[              }''''''''{                            -''''''''''''''']                     ",
"       '''''''''                                                         ''''''''''''''''''''''''''''''''''''''''$                 '''''''''                                               ='''''''3              &'''''''''+                           >(''''''''''''''@                     ",
"       '''''''''                                                         ''''''''''''''''''''''''''''''''''''''!@                  '''''''''                                               ('''''''.               _'''''''')                            }'''''''''''''^                      ",
"       '''''''''                                                         '''''''''''''''''''''''''''''''''''''3>                   '''''''''                                              +''''''''~]]~~]]]]~~~~~~~(''''''''[                             ~'''''''''''!>                      ",
"       '''''''''                                                         '''''''''''''''''''''''''''''''''''^*                     '''''''''                                              ^''''''''''''''''''''''''''''''''''%                            +'''''''''''$                       ",
"       '''''''''                                                         ''''''''''''''''''''''''''''''''~,*                       '''''''''                                              !''''''''''''''''''''''''''''''''''_                             )'''''''''|                        ",
"       '''''''''                                                         ''''''''''''''''''''''''[]]],,@                           '''''''''                                             }''''''''''''''''''''''''''''''''''''*                            >'''''''''%                        ",
"       '''''''''                                                         '''''''''@                                                '''''''''                                             _''''''''''''''''''''''''''''''''''''$                             '''''''''@                        ",
"       '''''''''                                                         '''''''''@                                                '''''''''                          .*                *'''''''''''''''''''''''''''''''''''''(                             '''''''''.                        ",
"       '''''''''                                                         '''''''''.                                                '''''''''                        *(''|->             $'''''''(@@@.@..@@@..@.@@..@.}'''''''''.                            '''''''''@                        ",
"       '''''''''                                                         '''''''''.                                                '''''''''                        _''''':>            (''''''')                     |''''''''3                            '''''''''.                        ",
"       '''''''''                                                         '''''''''@                                                '''''''''                       @''''''')           +''''''''+                     2''''''''!>                           '''''''''@                        ",
"       '''''''''                                                         '''''''''@                                                '''''''''                       ~'''''''^           3'''''''|                      +'''''''''}                           '''''''''@                        ",
"       '''''''''                                                         '''''''''@                                                '''''''''                      +''''''''}           !''''''',                       |''''''''{                           '''''''''.                        ",
"       '''''''''                                                         '''''''''.                                                '''''''''                      3''''''''*          }''''''''#                       $'''''''''*                          '''''''''.                        ",
"       '''''''''                                                         '''''''''@                                                '''''''''                     >'''''''':           1'''''''{                        *''''''''')                          '''''''''@                        ",
"       '''''''''                                                         '''''''''@                                                '''''''''                     $'''''''';          *''''''''$                         {''''''''!                          '''''''''@                        ",
"       '''''''''                                                         '''''''''.                                                '''''''''                     |''''''''>          $''''''''*                         ='''''''''%                         '''''''''@                        ",
"       '''''''''              *,3]~_-+                                   '''''''''@                                                '''''''''                    +''''''''3           |''''''':                          &'''''''''1                         '''''''''.                        ",
"       '''''''''             $!'''''''-                                  '''''''''.                                               >'''''''''                    ^''''''''@          <''''''''$                           _'''''''''*                        '''''''''.                        ",
"      +'''''''''*           ,''''''''''_                                &'''''''''/                                               @'''''''''                    !'''''''|           ^''''''''#                           }''''''''',                       >'''''''''.                        ",
"     >_'''''''''^>         +''''''''''''@                               2'''''''''{>                                             >1'''''''''                   }''''''''$          /'''''''''>                           %'''''''''!+                      3'''''''''~>                       ",
">=~~'''''''''''''''{~=>    ^'''''''''''']                          $_~'''''''''''''''{~-*                                   >=~~''''''''''''@                  :'''''''[>      .,-3''''''''''(2=@>                   *.-3!'''''''''''3--+             $1~'''''''''''''''{~,>                  ",
"~'''''''''''''''''''''(    ]''''''''''''|                         ^'''''''''''''''''''''[>                                  {''''''''''''''''''''''''''''''''''''''''''3     +|''''''''''''''''''[/                 ='''''''''''''''''''':*          1'''''''''''''''''''''[                  ",
"'''''''''''''''''''''''    ''''''''''''''                         ]''''''''''''''''''''''@                                  '''''''''''''''''''''''''''''''''''''''''''*     1''''''''''''''''''''^                 ]'''''''''''''''''''''_          ]''''''''''''''''''''''#                 ",
"|''''''''''''''''''''''    :''''''''''''[                         ]''''''''''''''''''''''                                   '''''''''''''''''''''''''''''''''''''''''']      ~'''''''''''''''''''',                 ]'''''''''''''''''''''^          ]''''''''''''''''''''''                  ",
"]'''''''''''''''''''''[    3'''''''''''']                         ^''''''''''''''''''''''                                   ~'''''''''''''''''''''''''''''''''''''''''@      !''''''''''''''''''''=                 ]'''''''''''''''''''''-          ]''''''''''''''''''''''                  ",
",''''''''''''''''''''']    @''''''''''''}                         =''''''''''''''''''''':                                   2'''''''''''''''''''''''''''''''''''''''']       '''''''''''''''''''''.                 _''''''''''''''''''''',          ,'''''''''''''''''''''!                  ",
"+''''''''''''''''''''',     )'''''''''']                          *''''''''''''''''''''')                                   @''''''''''''''''''''''''''''''''''''''''@       '''''''''''''''''''''>                 ,'''''''''''''''''''''-          /'''''''''''''''''''''1                  ",
" ^'''''''''''''''''''[*     >)''''''''_>                           )''''''''''''''''''''*                                    {''''''''''''''''''''''''''''''''''''''1        :'''''''''''''''''''|                  /'''''''''''''''''''''}           :''''''''''''''''''''$                  ",
"  .@@<           >@.@*        @3][':1/                              =%@@.         *@@@;%                                     >,$.@..@.+                   <@@..@@@,,>        +$@.@@&        +@@@}/                  *;.@<           >@@.@,            +$@..@         >@@@%,                   "};
