/* XPM */
static xpm_row_t score_xpm[] = {
/* columns rows colors chars-per-pixel */
"170 30 50 1 ",
"  c None",
". c #010101",
"X c #0f0f0f",
"o c #101010",
"O c #111111",
"+ c #1f1f1f",
"@ c #202020",
"# c #2F2F2F",
"$ c #303030",
"% c #313131",
"& c #3F3F3F",
"* c #404040",
"= c #414141",
"- c #4f4f4f",
"; c #505050",
": c #515151",
"> c #5F5F5F",
", c #606060",
"< c #616161",
"1 c #6F6F6F",
"2 c #707070",
"3 c #717171",
"4 c #7E7E7E",
"5 c #7f7f7f",
"6 c #808080",
"7 c #818181",
"8 c #8E8E8E",
"9 c #8f8f8f",
"0 c #909090",
"q c #919191",
"w c #9F9F9F",
"e c #A0A0A0",
"r c #A1A1A1",
"t c #AFAFAF",
"y c #B0B0B0",
"u c #bfbfbf",
"i c #C0C0C0",
"p c #C1C1C1",
"a c #CECECE",
"s c #cfcfcf",
"d c #D0D0D0",
"f c #d1d1d1",
"g c #DFDFDF",
"h c #e0e0e0",
"j c #E1E1E1",
"k c #EFEFEF",
"l c #f0f0f0",
"z c #F1F1F1",
"x c #FEFEFE",
"c c #FFFFFF",
/* pixels */
"                                                                                                                                                                          ",
"         +>euccccki8# otuuu-           o,wgccccdw* *uuut#            o&5uscccccgu5-            8uiu565558uuuuuuuuui51&            0iuuuy55555555555wuuuuw                 ",
"       owccccccccccccgtccccs         o5kccccccccccutccccko         @wkccccccccccccckw@        @ccccccccccccccccccccccck8+        @ccccccccccccccccccccccc*                ",
"      ,kcccccccccccccccccccc@       $sccccccccccccccccccc2       otccccccccccccccccccceo      ;cccccccccccccccccccccccccc,       *ccccccccccccccccccccccce                ",
"     *cccccccccccccccccccccc2      $kcccccccccccccccccccct      $gcccccccccccccccccccccg$     6ccccccccccccccccccccccccccc;      6ccccccccccccccccccccccck                ",
"    okcccccccce,**;0gcccccccy     @kcccccccccccccccccccccs     #kcccccccccci2icccccccccck$    6cccccccccccccdo ecccccccccch      6cccccccccccccl66yccccccc$               ",
"    5cccccccc0       2lcccccl     uccccccccccl6;*0lccccccc    #kcccccccccck   hccccccccccko   ;lcccccccccccc2  occccccccccc$     -lcccccccccccc5   *hccccc2               ",
"    lccccccccso       $lccccc    ,ccccccccccg$    Xscccccco   uccccccccccc6   ,ccccccccccct     @hcccccccccc*   dcccccccccc,       @gcccccccccc-    odcccc6    6icht$     ",
"   occcccccccck8$      $cccl2    hcccccccccc*      Xdccccc*  ,cccccccccccc*   occcccccccccc*     2cccccccccc*   ucccccccccc,        2cccccccccc&     @lccc2   icccccc*    ",
"   *cccccccccccccgw>$   $&#     -cccccccccci        $lcccl   scccccccccccc@    gccccccccccce     *cccccccccc*   icccccccccc*        *cccccccccc*      $di,   ,cccccccg    ",
"   *ccccccccccccccccckw-        ecccccccccc6         @2**o  @ccccccccccccc     icccccccccccc     *cccccccccc*   ccccccccccco        *cccccccccc*             0cccccccc    ",
"   *cccccccccccccccccccck5      dcccccccccc,                ,ccccccccccccu     ycccccccccccc*    *cccccccccc*  @ccccccccccw         *cccccccccc* @1tgto      ecccccccco   ",
"    ccccccccccccccccccccccu@    ccccccccccc&                0cccccccccccci     6cccccccccccc2    *cccccccccc&  0ccccccccch@         &cccccccccc**lccccg      2ccccccch    ",
"    icccccccccccccccccccccck$  $ccccccccccc&                icccccccccccci     6cccccccccccc6    *cccccccccct5tcccccccccdo          &ccccccccccwccccccc>      dcccccc;    ",
"    *cccccccccccccccccccccccs  *ccccccccccc1                icccccccccccci     5cccccccccccc6    *ccccccccccccccccccccy&            *cccccccccccccccccc6      o0lccg;     ",
"     0ccccccccccccccccccccccc6 *ccccccccccce                icccccccccccci     6cccccccccccc6    *ccccccccccccccccccccct$           &cccccccccccccccccc,                  ",
"      6ccccccccccccccccccccccc #cccccccccccg                icccccccccccci     6cccccccccccc6    &ccccccccccddccccccccccc,          *ccccccccccd;;icccdo                  ",
"       &iccccccccccccccccccccc@ cccccccccccc,               ecccccccccccci     6cccccccccccc,    &cccccccccc* 0ccccccccccc*         *cccccccccc*   2ceo                   ",
"         $ehcccccccccccccccccc- dcccccccccccgo              6cccccccccccci     6cccccccccccc$    *cccccccccc*  ycccccccccch         *cccccccccc*       ,iw>               ",
"            $2ylcccccccccccccc6 0cccccccccccct              $ccccccccccccc     ycccccccccccl     *cccccccccc*  @ccccccccccc$        *cccccccccc*       hccce              ",
"     @551       &wlccccccccccc* $cccccccccccccs+       o>s   lcccccccccccco    iccccccccccce     *cccccccccc;   ycccccccccc6        &cccccccccc&      ,ccccl   *wuu5o     ",
"    ;cccc,        o6cccccccccc$  icccccccccccccce;&&-5wkcc*  6cccccccccccc*    kccccccccccc$     2cccccccccc6   6cccccccccci        2cccccccccc*      hcccci  0cccccl@    ",
"    yccccc2         0cccccccch   *cccccccccccccccccccccccc6  olccccccccccc2   @ccccccccccci     osccccccccccs   *cccccccccck        dcccccccccc*     6ccccc0 *cccccccu    ",
"    5ccccccu$       ecccccccc6    0ccccccccccccccccccccccc;   2cccccccccccko  6ccccccccccl@   $tgcccccccccccc8- $ccccccccccc$    $tgccccccccccc&    *cccccc> 6cccccccc    ",
"    ,ccccccccu>&  $wcccccccclo     iccccccccccccccccccccclo    eccccccccccct@-kcccccccccc,    6cccccccccccccccc* ccccccccccccst+ 6ccccccccccccc1   2lcccccc@ ecccccccc+   ",
"    @ccccccccccccccccccccccc*      Xdcccccccccccccccccccc6      eccccccccccccccccccccccc,     6cccccccccccccccc& iccccccccccccc& 6ccccccccccccck50hcccccccd  2cccccccl    ",
"     sccccccccccccccccccccl,        oecccccccccccccccccce        ,lccccccccccccccccccch*      6cccccccccccccccc$ 2ccccccccccccc# 2cccccccccccccccccccccccc0  ohcccccc1    ",
"     >cccccccccccccccccccs$           *hccccccccccccccl1          @elcccccccccccccccl6o       *cccccccccccccccc   dcccccccccccl  *cccccccccccccccccccccccc@   $icccc6     ",
"     occcc6$0hcccccccccy;               &ehcccccccccd2o             o2ilccccccccccy,o          lcccccccccccccce   oecccccccccl,   lcccccccccccccccccccccc0      o&*       ",
"      @**$    $**666,*                     +*,566-*                     #&;5666*@              @$           **o      *266662*     @**                  $*                 "
};
